<?xml version="1.0" encoding="UTF-8"?>
<svg id="Layer_1" xmlns="http://www.w3.org/2000/svg" xmlns:xlink="http://www.w3.org/1999/xlink" version="1.1" viewBox="0 0 1195.9 745.1">
  <!-- Generator: Adobe Illustrator 29.3.1, SVG Export Plug-In . SVG Version: 2.1.0 Build 151)  -->
  <defs>
    <style>
      .st0 {
        stroke: #000;
        stroke-miterlimit: 10;
        stroke-width: 3px;
      }

      .st0, .st1 {
        fill: #231f20;
      }

      .st1 {
        font-size: 18px;
      }

      .st1, .st2, .st3, .st4 {
        font-family: Roboto-Regular, Roboto;
      }

      .st2 {
        font-size: 20px;
      }

      .st2, .st5 {
        fill: #fff;
      }

      .st3 {
        font-size: 30px;
      }

      .st4 {
        font-size: 25px;
      }

      .st6 {
        fill: #fa8c00;
      }

      .st7 {
        fill: #d95f38;
      }

      .st8 {
        fill: #8b6b4c;
      }

      .st9 {
        fill: #b4a996;
      }

      .st10 {
        fill: #f0c14b;
      }

      .st11 {
        fill: #943126;
      }

      .st12 {
        fill: #c71e1d;
      }
    </style>
  </defs>
  <rect id="path0" class="st12" x="17.9" y="97.9" width="452" height="268"/>
  <rect id="path1" class="st6" x="17.9" y="369.6" width="452" height="306"/>
  <rect id="path2" class="st8" x="737.3" y="97.6" width="66" height="299"/>
  <rect id="path3" class="st10" x="474.1" y="97.9" width="259" height="299"/>
  <rect id="path4" class="st11" x="473.6" y="400" width="270" height="165"/>
  <rect id="path5" class="st9" x="474.3" y="569" width="270" height="108"/>
  <rect id="path6" class="st7" x="747.3" y="401" width="55" height="275"/>
  <text class="st2" transform="translate(26.8 125.2)"><tspan x="0" y="0">FACTUAL ERROR</tspan><tspan x="0" y="24">700K</tspan></text>
  <text class="st2" transform="translate(26.8 401.7)"><tspan x="0" y="0">OUT OF CONTEXT</tspan><tspan x="0" y="24">800K</tspan></text>
  <text class="st1" transform="translate(899.2 163.4)"><tspan x="0" y="0">MANIPULATED </tspan><tspan x="0" y="21.6">MEDIA</tspan><tspan x="0" y="43.2">117K</tspan></text>
  <path class="st0" d="M757.7,175.5h136.6"/>
  <text class="st1" transform="translate(855.3 470.7)"><tspan x="0" y="0">SATIRE</tspan><tspan x="0" y="21.6">90K</tspan></text>
  <path class="st0" d="M758.6,472.4h87.4"/>
  <text class="st2" transform="translate(480.1 121.2)"><tspan x="0" y="0">UNVERIFIED CLAIM</tspan><tspan x="0" y="24">448K</tspan></text>
  <text class="st2" transform="translate(479.6 422.1)"><tspan x="0" y="0">OUTDATED INFO</tspan><tspan x="0" y="24">260K</tspan></text>
  <g>
    <path class="st5" d="M492.2,585.7c0,1.4-.2,2.6-.7,3.6-.5,1-1.1,1.8-2,2.4s-1.9.8-3,.8-2.1-.3-3-.8c-.9-.6-1.5-1.3-2-2.4-.5-1-.7-2.2-.7-3.5v-1c0-1.4.2-2.6.7-3.6.5-1,1.1-1.9,2-2.4s1.9-.8,3-.8,2.1.3,3,.8c.9.5,1.5,1.3,2,2.4s.7,2.3.7,3.6v.9ZM490.3,584.8c0-1.7-.3-3-1-3.9-.7-.9-1.6-1.4-2.8-1.4s-2.1.5-2.8,1.4c-.7.9-1,2.2-1,3.8v1c0,1.6.3,2.9,1,3.9.7.9,1.6,1.4,2.8,1.4s2.1-.4,2.8-1.3c.7-.9,1-2.1,1-3.8v-1.1Z"/>
    <path class="st5" d="M504.5,579.7h-4.6v12.7h-1.9v-12.7h-4.6v-1.5h11v1.5Z"/>
    <path class="st5" d="M517.6,592.4h-1.9v-6.6h-7.2v6.6h-1.9v-14.2h1.9v6.1h7.2v-6.1h1.9v14.2Z"/>
    <path class="st5" d="M528.9,585.8h-6.2v5h7.2v1.5h-9v-14.2h8.9v1.5h-7.1v4.6h6.2v1.5Z"/>
    <path class="st5" d="M537.5,586.6h-3.3v5.8h-1.9v-14.2h4.7c1.6,0,2.8.4,3.7,1.1.9.7,1.3,1.8,1.3,3.2s-.2,1.7-.7,2.3c-.5.7-1.1,1.1-2,1.5l3.3,6h0c0,.1-2,.1-2,.1l-3.1-5.8ZM534.1,585.1h2.9c.9,0,1.7-.2,2.2-.7.6-.5.8-1.1.8-1.9s-.3-1.6-.8-2c-.5-.5-1.3-.7-2.3-.7h-2.9v5.4Z"/>
    <path class="st5" d="M486.7,616.4h-1.8v-12l-3.6,1.3v-1.6l5.2-1.9h.3v14.3Z"/>
    <path class="st5" d="M501.2,603.2l-5.9,13.2h-1.9l5.9-12.7h-7.7v-1.5h9.6v1Z"/>
    <path class="st5" d="M512.1,610.3c0,2.1-.4,3.7-1.1,4.7-.7,1-1.9,1.5-3.4,1.5s-2.6-.5-3.4-1.5c-.7-1-1.1-2.5-1.1-4.5v-2.4c0-2.1.4-3.6,1.1-4.7s1.9-1.5,3.4-1.5,2.7.5,3.4,1.5c.7,1,1.1,2.5,1.1,4.5v2.3ZM510.3,607.8c0-1.5-.2-2.6-.6-3.3-.4-.7-1.1-1-2-1s-1.6.3-2,1c-.4.7-.6,1.8-.7,3.2v2.9c0,1.5.2,2.7.7,3.4.4.7,1.1,1.1,2,1.1s1.6-.3,2-1c.4-.7.7-1.8.7-3.3v-3Z"/>
    <path class="st5" d="M518.5,609.7l-1.7,1.8v4.8h-1.9v-14.2h1.9v7l6.3-7h2.3l-5.6,6.3,6,7.9h-2.2l-5-6.6Z"/>
  </g>
  <text class="st3" transform="translate(15.4 39.4)"><tspan x="0" y="0">Nearly 60% of Misleading Posts on X are Factually Incorrect or Out of Context</tspan></text>
  <text class="st4" transform="translate(15.4 73.5)"><tspan x="0" y="0" xml:space="preserve">Analysis of how  contributors categorized about 1 million misleading posts on X since 2023</tspan></text>
</svg>